<svg xmlns="http://www.w3.org/2000/svg" xmlns:xlink="http://www.w3.org/1999/xlink" id="Layer_1" width="16" height="16" x="0" style="enable-background:new 0 0 16 16" y="0" version="1.1" viewBox="0 0 16 16" xml:space="preserve"><style type="text/css">.st0{fill:#4c95ff}</style><path d="M10,9.3h2.3l-3.8,3.9v-2.3C8.5,10,9.2,9.3,10,9.3z" class="st0"/><path d="M10.9,2.8H5.1c-0.8,0-1.5,0.7-1.5,1.5v7.3c0,0.8,0.7,1.5,1.5,1.5h2.7v-2.3c0-1.2,1-2.3,2.3-2.3h2.3V4.3	C12.4,3.5,11.7,2.8,10.9,2.8z M7.3,7.9H5.7c-0.3,0-0.6-0.3-0.6-0.6s0.3-0.6,0.6-0.6h1.7c0.3,0,0.6,0.2,0.6,0.6S7.7,7.9,7.3,7.9z M10.4,5.6H5.7C5.3,5.6,5.1,5.3,5.1,5c0-0.3,0.3-0.6,0.6-0.6h4.7c0.3,0,0.6,0.3,0.6,0.6C10.9,5.3,10.7,5.6,10.4,5.6z" class="st0"/><g><path d="M12.4,9.3l-3.8,3.9v-2.3c0-0.8,0.7-1.5,1.5-1.5H12.4z" class="st0"/></g></svg>