<svg xmlns="http://www.w3.org/2000/svg" xmlns:xlink="http://www.w3.org/1999/xlink" id="Layer_1" width="16" height="16" x="0" style="enable-background:new 0 0 16 16" y="0" version="1.1" viewBox="0 0 16 16" xml:space="preserve"><style type="text/css">.st0{fill:#4c95ff}</style><path d="M2,2.8h1.3c0.1,0,0.3,0.1,0.3,0.1l0.7,0.7c0.1,0.1,0.2,0.1,0.3,0.1h1.6c0.1,0,0.3-0.1,0.3-0.1L7.2,3	c0.1-0.1,0.2-0.1,0.3-0.1H14c0.3,0,0.5,0.2,0.5,0.5v3c0,0.3-0.2,0.5-0.5,0.5H7.6c-0.1,0-0.3,0.1-0.3,0.1L6.5,7.6	C6.5,7.7,6.3,7.8,6.2,7.8H4.6c-0.1,0-0.3-0.1-0.3-0.1L3.6,6.9C3.5,6.9,3.4,6.8,3.2,6.8H2c-0.3,0-0.5-0.2-0.5-0.5v-3	C1.5,3.1,1.7,2.8,2,2.8z" class="st0"/><path d="M2,8.2h1.3c0.1,0,0.3,0.1,0.3,0.1l0.7,0.7c0.1,0.1,0.2,0.1,0.3,0.1h1.6c0.1,0,0.3-0.1,0.3-0.1l0.7-0.7	c0.1-0.1,0.2-0.1,0.3-0.1h3.1c0.3,0,0.5,0.2,0.5,0.5v3c0,0.3-0.2,0.5-0.5,0.5H7.6c-0.1,0-0.3,0.1-0.3,0.1L6.5,13	c-0.1,0.1-0.2,0.1-0.3,0.1H4.6c-0.1,0-0.3-0.1-0.3-0.1l-0.7-0.7c-0.1-0.1-0.2-0.1-0.3-0.1H2c-0.3,0-0.5-0.2-0.5-0.5v-3	C1.5,8.4,1.7,8.2,2,8.2z" class="st0"/></svg>