<svg xmlns="http://www.w3.org/2000/svg" width="204" height="204"><g fill="none" fill-rule="evenodd" transform="translate(15 44)"><g stroke="#231F20" stroke-linecap="round" stroke-linejoin="round" stroke-width="1.2" opacity=".5"><path d="M129.6 94h-.6"/><path stroke-dasharray="1.246 2.492" d="M126.5 94H97.8"/><path d="M96.6 94H96"/></g><g stroke-linecap="round" stroke-linejoin="round" stroke-width="1.2"><path fill="#414757" fill-rule="nonzero" stroke="#414757" d="M172.8 96.5h-37.2c-.7 0-1.2-.5-1.2-1.2v-2.4c0-.7.5-1.2 1.2-1.2h37.2c.6 0 1.2.5 1.2 1.2v2.4c0 .7-.5 1.2-1.2 1.2z"/><path fill="#231F20" fill-rule="nonzero" stroke="#231F20" d="M172.8 96.5h-37.2c-.7 0-1.2-.5-1.2-1.2V94H174v1.2c0 .7-.5 1.2-1.2 1.2z" opacity=".5"/><path stroke="#231F20" d="M134.4 94H174"/></g><path fill="#FFF" fill-rule="nonzero" d="M28.8 43.7h-9.6V40c0-.7.5-1.2 1.2-1.2h7.2c.7 0 1.2.5 1.2 1.2v3.6z"/><path fill="#231F20" fill-rule="nonzero" stroke="#231F20" stroke-linecap="round" stroke-linejoin="round" stroke-width="1.2" d="M25.5 38.9v4.8h3.3v-4c0-.4-.5-.8-1.2-.8h-2.1z" opacity=".1"/><path stroke="#7C87A5" stroke-linecap="round" stroke-linejoin="round" stroke-width="1.2" d="M28.8 43.7h-9.6V40c0-.7.5-1.2 1.2-1.2h7.2c.7 0 1.2.5 1.2 1.2v3.6z"/><path fill="#FFF" fill-rule="nonzero" d="M43.2 43.7h-9.6V40c0-.7.5-1.2 1.2-1.2H42c.7 0 1.2.5 1.2 1.2v3.6z"/><path fill="#231F20" fill-rule="nonzero" stroke="#231F20" stroke-linecap="round" stroke-linejoin="round" stroke-width="1.2" d="M39.9 38.9v4.8h3.3v-4c0-.4-.5-.8-1.2-.8h-2z" opacity=".1"/><path stroke="#7C87A5" stroke-linecap="round" stroke-linejoin="round" stroke-width="1.2" d="M43.2 43.7h-9.6V40c0-.7.5-1.2 1.2-1.2H42c.7 0 1.2.5 1.2 1.2v3.6z"/><path fill="#FFF" fill-rule="nonzero" d="M57.6 43.7H48V40c0-.7.5-1.2 1.2-1.2h7.2c.7 0 1.2.5 1.2 1.2v3.6z"/><path fill="#231F20" fill-rule="nonzero" stroke="#231F20" stroke-linecap="round" stroke-linejoin="round" stroke-width="1.2" d="M54.3 38.9v4.8h3.3v-4c0-.4-.5-.8-1.2-.8h-2.1z" opacity=".1"/><path stroke="#7C87A5" stroke-linecap="round" stroke-linejoin="round" stroke-width="1.2" d="M57.6 43.7H48V40c0-.7.5-1.2 1.2-1.2h7.2c.7 0 1.2.5 1.2 1.2v3.6z"/><path fill="#FFF" fill-rule="nonzero" d="M72 43.7h-9.6V40c0-.7.5-1.2 1.2-1.2h7.2c.7 0 1.2.5 1.2 1.2v3.6z"/><path fill="#231F20" fill-rule="nonzero" stroke="#231F20" stroke-linecap="round" stroke-linejoin="round" stroke-width="1.2" d="M68.5 38.9v4.8h3.3v-4c0-.4-.5-.8-1.2-.8h-2z" opacity=".1"/><path stroke="#7C87A5" stroke-linecap="round" stroke-linejoin="round" stroke-width="1.2" d="M72 43.7h-9.6V40c0-.7.5-1.2 1.2-1.2h7.2c.7 0 1.2.5 1.2 1.2v3.6z"/><path fill="#FFF" fill-rule="nonzero" stroke="#7C87A5" stroke-linecap="round" stroke-linejoin="round" stroke-width="1.2" d="M91.2 65.3v48c0 1.3-1 2.4-2.4 2.4H2.4c-1.3 0-2.4-1-2.4-2.4v-48c0-1.3 1-2.4 2.4-2.4h12V46c0-1.3 1-2.4 2.4-2.4h57.6c1.3 0 2.4 1 2.4 2.4v16.8h12c1.3 0 2.4 1 2.4 2.4z"/><path fill="#FFF" fill-rule="nonzero" d="M88.8 62.9h-9.6v-3.6c0-.7.5-1.2 1.2-1.2h7.2c.7 0 1.2.5 1.2 1.2v3.6z"/><path fill="#231F20" fill-rule="nonzero" stroke="#231F20" stroke-linecap="round" stroke-linejoin="round" stroke-width="1.2" d="M85.5 58v5h3.3v-4c0-.4-.5-.8-1.2-.8h-2.1z" opacity=".1"/><path stroke="#7C87A5" stroke-linecap="round" stroke-linejoin="round" stroke-width="1.2" d="M88.8 62.9h-9.6v-3.6c0-.7.5-1.2 1.2-1.2h7.2c.7 0 1.2.5 1.2 1.2v3.6z"/><path fill="#FFF" fill-rule="nonzero" d="M12 62.9H2.4v-3.6c0-.7.5-1.2 1.2-1.2h7.2c.7 0 1.2.5 1.2 1.2v3.6z"/><path fill="#231F20" fill-rule="nonzero" stroke="#231F20" stroke-linecap="round" stroke-linejoin="round" stroke-width="1.2" d="M8.5 58v5h3.3v-4c0-.4-.5-.8-1.2-.8h-2z" opacity=".1"/><path stroke="#7C87A5" stroke-linecap="round" stroke-linejoin="round" stroke-width="1.2" d="M12 62.9H2.4v-3.6c0-.7.5-1.2 1.2-1.2h7.2c.7 0 1.2.5 1.2 1.2v3.6z"/><path fill="#E6E7E8" fill-rule="nonzero" stroke="#7C87A5" stroke-linecap="round" stroke-linejoin="round" stroke-width="1.2" d="M88.8 115.7H2.4c-1.3 0-2.4-1-2.4-2.4v-36h9.6l9.6 4.8H72l9.6-4.8h9.6v36c0 1.3-1 2.4-2.4 2.4z"/><path fill="#E6E7E8" fill-rule="nonzero" stroke="#7C87A5" stroke-linecap="round" stroke-linejoin="round" stroke-width="1.2" d="M19.2 82v24l-9.6 5H0m72-29v24l9.6 4.9h9.6"/><path fill="#7C87A5" fill-rule="nonzero" d="M10 91.7h.8l.6.3.4.5.2.7-.2.7-.7.5c.4.1.7.3.9.6.2.2.3.6.3 1l-.2.7-.5.6-.7.3H7.2v-6H10zm0 2.3l.6-.1.2-.6V93l-.3-.2-.3-.2H8.5V94H10zm0 2.6h.4l.3-.2.2-.2.1-.4c0-.3 0-.5-.2-.7L10 95H8.5v1.7H10z" opacity=".5"/><text fill="#7C87A5" font-family="Helvetica" font-size="8.4" opacity=".5" transform="translate(78 90)"><tspan x=".7" y="8.5">A</tspan></text><path fill="#4C97FF" fill-rule="nonzero" d="M82.3 91.7l2.2 6h-1.3l-.5-1.3h-2.2l-.5 1.3h-1.3l2.2-6h1.4zm0 3.7l-.7-2.2-.8 2.2h1.6z"/><path fill="#231F20" fill-rule="nonzero" stroke="#231F20" stroke-linecap="round" stroke-linejoin="round" stroke-width="1.2" d="M91.2 65.3v48c0 1.3-1 2.4-2.4 2.4H2.4c-1.3 0-2.4-1-2.4-2.4v-2.4h82.8c2 0 3.6-1.6 3.6-3.6V62.9h2.4c1.3 0 2.4 1 2.4 2.4z" opacity=".1"/><g fill-rule="nonzero" stroke-linecap="round" stroke-linejoin="round" stroke-width="1.2"><path fill="#FF8C1A" stroke="#DB6E00" d="M117.6 101.3H108c-1.3 0-2.4-1-2.4-2.4v-96c0-1.3 1-2.4 2.4-2.4h9.6c1.3 0 2.4 1 2.4 2.4v96c0 1.3-1 2.4-2.4 2.4zm-12-50.4H120"/><path fill="#231F20" stroke="#231F20" d="M117.6 101.3H108c-1.3 0-2.4-1-2.4-2.4v-48H120v48c0 1.3-1 2.4-2.4 2.4z" opacity=".1"/><path fill="#231F20" stroke="#231F20" d="M117.6 101.3H108c-1.3 0-2.4-1-2.4-2.4H120c0 1.3-1 2.4-2.4 2.4z" opacity=".1"/><path fill="#FFF" stroke="#FFF" d="M108 .5h9.6c1.3 0 2.4 1 2.4 2.4h-14.4c0-1.3 1-2.4 2.4-2.4z" opacity=".3"/></g><path fill="#4C97FF" fill-rule="nonzero" d="M154.2 117.8c-.3 1.2-1.2 2-2.3 2.3l-18 2.6v4c0 1.3-1.6 2.1-2.6 1.3l-13.1-9.3c-1-.6-1-2 0-2.6l13-9.5c1-.7 2.6 0 2.6 1.4v4l18 2.6c1.6.3 2.6 1.7 2.4 3.2z"/><circle cx="81.6" cy="94.1" r="9.6" stroke="#4C97FF" stroke-width="2.4"/><circle cx="81.6" cy="94.1" r="14.4" stroke="#4C97FF" stroke-width="2.4" opacity=".5"/></g></svg>