<svg xmlns="http://www.w3.org/2000/svg" xmlns:xlink="http://www.w3.org/1999/xlink" id="Layer_1" width="54.5" height="43.3" x="0" style="enable-background:new 0 0 54.5 43.3" y="0" version="1.1" viewBox="0 0 54.5 43.3" xml:space="preserve"><g><g><path style="fill:#fff;stroke:#2398c1;stroke-width:1.4;stroke-linecap:round;stroke-linejoin:round;stroke-miterlimit:10" d="M7.2,33.9v-31c0-1.2,1-2.2,2.2-2.2h42.3c1.2,0,2.2,1,2.2,2.2v31c0,1.2-1,2.2-2.2,2.2H9.4C8.2,36.1,7.2,35.1,7.2,33.9z"/></g><line style="fill:none;stroke:#2398c1;stroke-width:1.4;stroke-linecap:round;stroke-linejoin:round;stroke-miterlimit:10" x1="7.2" x2="53.8" y1="6.4" y2="6.4"/><g><path style="fill:#b6ecff;stroke:#2398c1;stroke-width:1.4;stroke-linecap:round;stroke-linejoin:round;stroke-miterlimit:10" d="M4,37.2v-31C4,4.9,4.9,4,6.1,4h42.3c1.2,0,2.2,1,2.2,2.2v31c0,1.2-1,2.2-2.2,2.2H6.1C4.9,39.3,4,38.4,4,37.2z"/></g><line style="fill:none;stroke:#2398c1;stroke-width:1.4;stroke-linecap:round;stroke-linejoin:round;stroke-miterlimit:10" x1="3.7" x2="50.3" y1="10.4" y2="10.4"/><g><path style="fill:#fff;stroke:#2398c1;stroke-width:1.4;stroke-linecap:round;stroke-linejoin:round;stroke-miterlimit:10" d="M0.7,40.4v-31c0-1.2,1-2.2,2.2-2.2h42.3c1.2,0,2.2,1,2.2,2.2v31c0,1.2-1,2.2-2.2,2.2H2.9C1.7,42.6,0.7,41.6,0.7,40.4z"/></g><line style="fill:none;stroke:#2398c1;stroke-width:1.4;stroke-linecap:round;stroke-linejoin:round;stroke-miterlimit:10" x1=".7" x2="47.3" y1="13.4" y2="13.4"/><circle style="fill:#2bb673" cx="40.3" cy="10.6" r=".8"/><circle style="fill:#db4c3e" cx="43.4" cy="10.6" r=".8"/><g><g><path style="fill:#b6ecff;stroke:#2398c1;stroke-width:1.4;stroke-linecap:round;stroke-linejoin:round;stroke-miterlimit:10" d="M26.7,28.2c0.8,1.1,1.2,2.5,1.3,4c2.4,0.7,6.4,0.1,6.4-1.7c0-2-1-3.6-2.5-4.3c-0.4,0.4-1,0.6-1.6,0.6c-0.6,0-1.2-0.2-1.6-0.6 C27.8,26.6,27.1,27.3,26.7,28.2z"/><path style="fill:#b6ecff;stroke:#2398c1;stroke-width:1.4;stroke-linecap:round;stroke-linejoin:round;stroke-miterlimit:10" d="M27.8,24.4c0,0.7,0.3,1.4,0.8,1.9c0.4,0.4,1,0.6,1.6,0.6c0.6,0,1.2-0.2,1.6-0.6c0.5-0.5,0.9-1.1,0.9-1.9c0-1.3-1.1-2.4-2.4-2.4 C28.9,21.9,27.8,23,27.8,24.4z"/></g><g><path style="fill:#b6ecff;stroke:#2398c1;stroke-width:1.4;stroke-linecap:round;stroke-linejoin:round;stroke-miterlimit:10" d="M15.3,32.7c0,4,12.7,4,12.7,0c0-0.1,0-0.3,0-0.4c-0.1-1.5-0.5-2.9-1.3-4c-0.7-1-1.6-1.8-2.6-2.2c-0.6,0.6-1.5,0.9-2.4,0.9 c-0.9,0-1.8-0.3-2.4-0.9C16.9,27.1,15.3,29.6,15.3,32.7z"/><path style="fill:#b6ecff;stroke:#2398c1;stroke-width:1.4;stroke-linecap:round;stroke-linejoin:round;stroke-miterlimit:10" d="M17.9,23.1c0,1.1,0.5,2.2,1.3,2.9c0.7,0.6,1.5,0.9,2.4,0.9c0.9,0,1.8-0.3,2.4-0.9c0.8-0.7,1.3-1.7,1.3-2.9c0-2.1-1.7-3.8-3.8-3.8 C19.6,19.4,17.9,21,17.9,23.1z"/></g></g></g></svg>