<svg xmlns="http://www.w3.org/2000/svg" xmlns:xlink="http://www.w3.org/1999/xlink" width="20" height="20" version="1.1" viewBox="0 0 20 20"><title>Community/Social/Add to Studio</title><desc>Created with Sketch.</desc><defs><path id="path-1" d="M12,8 L16,8 C17.1045695,8 18,8.8954305 18,10 C18,11.1045695 17.1045695,12 16,12 L12,12 L12,16 C12,17.1045695 11.1045695,18 10,18 C8.8954305,18 8,17.1045695 8,16 L8,12 L4,12 C2.8954305,12 2,11.1045695 2,10 C2,8.8954305 2.8954305,8 4,8 L8,8 L8,4 C8,2.8954305 8.8954305,2 10,2 C11.1045695,2 12,2.8954305 12,4 L12,8 Z"/></defs><g id="Community/Social/Add-to-Studio" fill="none" fill-rule="evenodd" stroke="none" stroke-width="1"><mask id="mask-2" fill="#fff"><use xlink:href="#path-1"/></mask><use id="Combined-Shape" fill="#FFF" xlink:href="#path-1"/><g id="Color/White" fill="#FFF" mask="url(#mask-2)"><rect id="Color" width="20" height="20" x="0" y="0"/></g></g></svg>