<svg xmlns="http://www.w3.org/2000/svg" width="140" height="116" viewBox="0 0 140 116"><title>tips-window2</title><g style="isolation:isolate"><g id="Layer_1" data-name="Layer 1"><path fill="#231f20" stroke="#231f20" stroke-linecap="round" stroke-linejoin="round" stroke-width="1.4" d="M19.87,38.13H120.13a0,0,0,0,1,0,0V90.24a4,4,0,0,1-4,4H23.88a4,4,0,0,1-4-4V38.13A0,0,0,0,1,19.87,38.13Z" opacity=".1" style="mix-blend-mode:multiply"/><path fill="#e6e7e8" d="M19.87,35.82H120.13a0,0,0,0,1,0,0V87.93a4,4,0,0,1-4,4H23.88a4,4,0,0,1-4-4V35.82A0,0,0,0,1,19.87,35.82Z"/><path fill="#b6ecff" stroke="#2398c1" stroke-linecap="round" stroke-linejoin="round" stroke-width="1.4" d="M23.88,21.75h92.23a4,4,0,0,1,4,4v10.3a0,0,0,0,1,0,0H19.87a0,0,0,0,1,0,0V25.76A4,4,0,0,1,23.88,21.75Z"/><rect width="62.08" height="5.33" x="53.51" y="26.24" fill="#fff" stroke="#2398c1" stroke-linecap="round" stroke-linejoin="round" stroke-width="1.4" rx="2.62" ry="2.62"/><circle cx="24.87" cy="28.91" r="1.06" fill="#2398c1"/><circle cx="28.44" cy="28.91" r="1.06" fill="#2398c1"/><circle cx="32" cy="28.91" r="1.06" fill="#2398c1"/><line x1="41.54" x2="38.21" y1="28.91" y2="28.91" fill="none" stroke="#2398c1" stroke-linecap="round" stroke-linejoin="round" stroke-width="1.4"/><polyline fill="none" stroke="#2398c1" stroke-linecap="round" stroke-linejoin="round" stroke-width="1.4" points="39.74 30.44 38.21 28.91 39.74 27.38"/><line x1="45.29" x2="48.62" y1="28.91" y2="28.91" fill="none" stroke="#2398c1" stroke-linecap="round" stroke-linejoin="round" stroke-width="1.4"/><polyline fill="none" stroke="#2398c1" stroke-linecap="round" stroke-linejoin="round" stroke-width="1.4" points="47.09 27.38 48.62 28.91 47.09 30.44"/><rect width="100.25" height="2.53" x="19.87" y="35.99" fill="#231f20" stroke="#231f20" stroke-linecap="round" stroke-linejoin="round" stroke-width="1.4" opacity=".05"/><path fill="#fff" stroke="#a7a9ac" stroke-linecap="round" stroke-linejoin="round" stroke-width="1.4" d="M25.94,47.45H60.36a0,0,0,0,1,0,0V65.22a3.42,3.42,0,0,1-3.42,3.42H29.35a3.42,3.42,0,0,1-3.42-3.42V47.45A0,0,0,0,1,25.94,47.45Z"/><path fill="#fff" stroke="#a7a9ac" stroke-linecap="round" stroke-linejoin="round" stroke-width="1.4" d="M25.94,73.23H60.36a0,0,0,0,1,0,0V88.52a3.42,3.42,0,0,1-3.42,3.42H29.35a3.42,3.42,0,0,1-3.42-3.42V73.23a0,0,0,0,1,0,0Z" transform="translate(86.29 165.16) rotate(180)"/><path fill="#e6e7e8" stroke="#a7a9ac" stroke-linecap="round" stroke-linejoin="round" stroke-width="1.4" d="M66.52,87.84h46.86a0,0,0,0,1,0,0v2.27a1.83,1.83,0,0,1-1.83,1.83H68.35a1.83,1.83,0,0,1-1.83-1.83V87.84a0,0,0,0,1,0,0Z" transform="translate(179.91 179.78) rotate(180)"/><path fill="#e6e7e8" stroke="#a7a9ac" stroke-linecap="round" stroke-linejoin="round" stroke-width="1.4" d="M29.35,42.4H56.94a3.42,3.42,0,0,1,3.42,3.42v1.62a0,0,0,0,1,0,0H25.94a0,0,0,0,1,0,0V45.82A3.42,3.42,0,0,1,29.35,42.4Z"/><path fill="#e6e7e8" stroke="#a7a9ac" stroke-linecap="round" stroke-linejoin="round" stroke-width="1.4" d="M84.48,47.44V84.35h-18V44.41a2,2,0,0,1,2-2h2a2,2,0,0,1,2,2v3h12Z"/><path fill="#e6e7e8" stroke="#a7a9ac" stroke-linecap="round" stroke-linejoin="round" stroke-width="1.4" d="M74.52,42.4h2a2,2,0,0,1,2,2v3a0,0,0,0,1,0,0h-6a0,0,0,0,1,0,0v-3A2,2,0,0,1,74.52,42.4Z"/><path fill="#e6e7e8" stroke="#a7a9ac" stroke-linecap="round" stroke-linejoin="round" stroke-width="1.4" d="M80.51,42.4h2a2,2,0,0,1,2,2v3a0,0,0,0,1,0,0h-6a0,0,0,0,1,0,0v-3A2,2,0,0,1,80.51,42.4Z"/><rect width="28.9" height="36.91" x="84.48" y="47.44" fill="#d1d3d4" stroke="#a7a9ac" stroke-linecap="round" stroke-linejoin="round" stroke-width="1.4"/><path fill="#e6e7e8" stroke="#a7a9ac" stroke-linecap="round" stroke-linejoin="round" stroke-width="1.4" d="M91.67,55.9h36.91a0,0,0,0,1,0,0V72a3.94,3.94,0,0,1-3.94,3.94h-29A3.94,3.94,0,0,1,91.67,72V55.9A0,0,0,0,1,91.67,55.9Z" transform="translate(176.02 -44.23) rotate(90)"/><line x1="69.55" x2="73.5" y1="51.28" y2="51.28" fill="none" stroke="#d1d3d4" stroke-linecap="round" stroke-linejoin="round" stroke-width="1.4"/><line x1="77.5" x2="81.45" y1="51.28" y2="51.28" fill="none" stroke="#d1d3d4" stroke-linecap="round" stroke-linejoin="round" stroke-width="1.4"/><line x1="69.55" x2="73.5" y1="54.01" y2="54.01" fill="none" stroke="#d1d3d4" stroke-linecap="round" stroke-linejoin="round" stroke-width="1.4"/><line x1="77.5" x2="81.45" y1="54.01" y2="54.01" fill="none" stroke="#d1d3d4" stroke-linecap="round" stroke-linejoin="round" stroke-width="1.4"/><line x1="69.55" x2="73.5" y1="56.73" y2="56.73" fill="none" stroke="#d1d3d4" stroke-linecap="round" stroke-linejoin="round" stroke-width="1.4"/><line x1="77.5" x2="81.45" y1="56.73" y2="56.73" fill="none" stroke="#d1d3d4" stroke-linecap="round" stroke-linejoin="round" stroke-width="1.4"/><line x1="69.55" x2="73.5" y1="59.46" y2="59.46" fill="none" stroke="#d1d3d4" stroke-linecap="round" stroke-linejoin="round" stroke-width="1.4"/><line x1="77.5" x2="81.45" y1="59.46" y2="59.46" fill="none" stroke="#d1d3d4" stroke-linecap="round" stroke-linejoin="round" stroke-width="1.4"/><line x1="69.55" x2="73.5" y1="62.18" y2="62.18" fill="none" stroke="#d1d3d4" stroke-linecap="round" stroke-linejoin="round" stroke-width="1.4"/><line x1="77.5" x2="81.45" y1="62.18" y2="62.18" fill="none" stroke="#a7a9ac" stroke-linecap="round" stroke-linejoin="round" stroke-width="1.4"/><line x1="100.13" x2="120.13" y1="52.39" y2="52.39" fill="#e6e7e8" stroke="#a7a9ac" stroke-linecap="round" stroke-linejoin="round" stroke-width="1.4"/><circle cx="110.26" cy="66.08" r="7.14" fill="#824dcb" stroke="#caa9ff" stroke-linecap="round" stroke-linejoin="round" stroke-width="1.4"/><path fill="#fff" d="M108.14,64.13a2.19,2.19,0,0,1,.46-0.73,2.06,2.06,0,0,1,.71-0.48,2.41,2.41,0,0,1,.93-0.17,2.94,2.94,0,0,1,1.11.18,2.16,2.16,0,0,1,.71.45,1.65,1.65,0,0,1,.39.58,1.69,1.69,0,0,1,.12.58,2,2,0,0,1-.12.74,1.83,1.83,0,0,1-.29.5,2,2,0,0,1-.38.35l-0.4.29a1.84,1.84,0,0,0-.33.33,1,1,0,0,0-.18.47v0.36H109.6V67.16A1.83,1.83,0,0,1,110,66a2.35,2.35,0,0,1,.36-0.33l0.35-.28a1.27,1.27,0,0,0,.26-0.31,0.77,0.77,0,0,0,.09-0.42,0.86,0.86,0,0,0-.21-0.64,0.8,0.8,0,0,0-.58-0.21,0.9,0.9,0,0,0-.43.1,0.86,0.86,0,0,0-.3.26,1.16,1.16,0,0,0-.17.38,1.92,1.92,0,0,0-.06.47H108A2.7,2.7,0,0,1,108.14,64.13Zm2.8,4v1.44h-1.47V68.14h1.47Z"/><path fill="none" stroke="#2398c1" stroke-linecap="round" stroke-linejoin="round" stroke-width="1.33" d="M19.87,35.82H120.13a0,0,0,0,1,0,0V87.93a4,4,0,0,1-4,4H23.88a4,4,0,0,1-4-4V35.82A0,0,0,0,1,19.87,35.82Z"/></g></g></svg>